<svg version="1.2" xmlns="http://www.w3.org/2000/svg" overflow="visible" preserveAspectRatio="none" viewBox="0 0 18.000000000000004 20" width="18.000000000000004" height="20"><g transform="translate(0, 0)"><g transform="translate(3.594347042223944e-15, 0) rotate(0)"><path d="M9,0c-0.71123,0 -1.28584,0.55859 -1.28584,1.25v0.75c-2.93333,0.57813 -5.14337,3.10156 -5.14337,6.125v0.99219c0,1.77344 -0.62283,3.49609 -1.76,4.87891l-0.59872,0.73047c-0.23306,0.28125 -0.27726,0.66797 -0.11653,0.99219c0.16073,0.32422 0.49826,0.53125 0.86794,0.53125h16.07303c0.36968,0 0.70721,-0.20703 0.86794,-0.53125c0.16073,-0.32422 0.11653,-0.71094 -0.11653,-0.99219l-0.59872,-0.72656c-1.13717,-1.38672 -1.76,-3.10937 -1.76,-4.88281v-0.99219c0,-3.02344 -2.21004,-5.54687 -5.14337,-6.125v-0.75c0,-0.69141 -0.57461,-1.25 -1.28584,-1.25zM9,3.75c2.4873,0 4.50045,1.95703 4.50045,4.375v0.99219c0,1.87109 0.55854,3.69531 1.59525,5.25781h-12.1914c1.03671,-1.5625 1.59525,-3.38672 1.59525,-5.25781v-0.99219c0,-2.41797 2.01315,-4.375 4.50045,-4.375zM11.57169,17.5h-2.57169h-2.57169c0,0.66406 0.26922,1.30078 0.75141,1.76953c0.48219,0.46875 1.13717,0.73047 1.82027,0.73047c0.6831,0 1.33808,-0.26172 1.82027,-0.73047c0.48219,-0.46875 0.75141,-1.10547 0.75141,-1.76953z" style="stroke-width: 0px; stroke-linecap: butt; stroke-linejoin: miter; fill: rgb(51, 51, 51);" vector-effect="non-scaling-stroke"/></g><defs><path id="path-17120499881992349" d="M9,0c-0.71123,0 -1.28584,0.55859 -1.28584,1.25v0.75c-2.93333,0.57813 -5.14337,3.10156 -5.14337,6.125v0.99219c0,1.77344 -0.62283,3.49609 -1.76,4.87891l-0.59872,0.73047c-0.23306,0.28125 -0.27726,0.66797 -0.11653,0.99219c0.16073,0.32422 0.49826,0.53125 0.86794,0.53125h16.07303c0.36968,0 0.70721,-0.20703 0.86794,-0.53125c0.16073,-0.32422 0.11653,-0.71094 -0.11653,-0.99219l-0.59872,-0.72656c-1.13717,-1.38672 -1.76,-3.10937 -1.76,-4.88281v-0.99219c0,-3.02344 -2.21004,-5.54687 -5.14337,-6.125v-0.75c0,-0.69141 -0.57461,-1.25 -1.28584,-1.25zM9,3.75c2.4873,0 4.50045,1.95703 4.50045,4.375v0.99219c0,1.87109 0.55854,3.69531 1.59525,5.25781h-12.1914c1.03671,-1.5625 1.59525,-3.38672 1.59525,-5.25781v-0.99219c0,-2.41797 2.01315,-4.375 4.50045,-4.375zM11.57169,17.5h-2.57169h-2.57169c0,0.66406 0.26922,1.30078 0.75141,1.76953c0.48219,0.46875 1.13717,0.73047 1.82027,0.73047c0.6831,0 1.33808,-0.26172 1.82027,-0.73047c0.48219,-0.46875 0.75141,-1.10547 0.75141,-1.76953z" vector-effect="non-scaling-stroke"/></defs></g></svg>