<svg version="1.2" xmlns="http://www.w3.org/2000/svg" xmlns:xlink="http://www.w3.org/1999/xlink" overflow="visible" preserveAspectRatio="none" viewBox="0 0 12 14" width="12" height="14"><g transform="translate(0, 0)"><g transform="translate(0, 0) rotate(0)"><path d="M5.57019,0.4375c0,-0.24063 0.19281,-0.4375 0.42848,-0.4375c0.23566,0 0.42848,0.19688 0.42848,0.4375v0.45938c2.16648,0.21875 3.85628,2.08359 3.85628,4.35313v0.7957c0,1.19492 0.46597,2.34063 1.29346,3.18828l0.07498,0.07656c0.22227,0.22695 0.34814,0.53594 0.34814,0.85586c0,0.66992 -0.53024,1.21133 -1.18634,1.21133h-9.62732c-0.6561,-0.00273 -1.18634,-0.54414 -1.18634,-1.21406c0,-0.31992 0.12586,-0.62891 0.34814,-0.85586l0.07498,-0.07656c0.82482,-0.84492 1.29078,-1.99063 1.29078,-3.18555v-0.7957c0,-2.26953 1.6898,-4.13438 3.85628,-4.35313zM5.99866,1.75c-1.89333,0 -3.42781,1.5668 -3.42781,3.5v0.7957c0,1.42734 -0.55434,2.79727 -1.54519,3.80625l-0.07231,0.07383c-0.06159,0.06289 -0.09641,0.14766 -0.09641,0.23789c0,0.18594 0.14729,0.33633 0.32939,0.33633h9.62464c0.1821,0 0.32939,-0.15039 0.32939,-0.33633c0,-0.09023 -0.03481,-0.175 -0.09641,-0.23789l-0.07498,-0.07656c-0.98817,-1.00898 -1.54519,-2.37891 -1.54519,-3.80625v-0.79297c0,-1.9332 -1.53448,-3.5 -3.42781,-3.5zM5.18991,12.54258c0.11783,0.33906 0.43651,0.58242 0.80875,0.58242c0.37224,0 0.69092,-0.24336 0.80875,-0.58242c0.07766,-0.22695 0.32403,-0.34727 0.54631,-0.26797c0.22227,0.0793 0.3401,0.33086 0.26244,0.55781c-0.23566,0.68086 -0.87034,1.16758 -1.6175,1.16758c-0.74715,0 -1.38183,-0.48672 -1.6175,-1.16758c-0.07766,-0.22695 0.03749,-0.47852 0.26244,-0.55781c0.22495,-0.0793 0.46865,0.03828 0.54631,0.26797z" style="stroke-width: 0px; stroke-linecap: butt; stroke-linejoin: miter; fill: rgb(255, 255, 255);" vector-effect="non-scaling-stroke"/></g><defs><path id="path-170859140330732" d="M5.57019,0.4375c0,-0.24063 0.19281,-0.4375 0.42848,-0.4375c0.23566,0 0.42848,0.19688 0.42848,0.4375v0.45938c2.16648,0.21875 3.85628,2.08359 3.85628,4.35313v0.7957c0,1.19492 0.46597,2.34063 1.29346,3.18828l0.07498,0.07656c0.22227,0.22695 0.34814,0.53594 0.34814,0.85586c0,0.66992 -0.53024,1.21133 -1.18634,1.21133h-9.62732c-0.6561,-0.00273 -1.18634,-0.54414 -1.18634,-1.21406c0,-0.31992 0.12586,-0.62891 0.34814,-0.85586l0.07498,-0.07656c0.82482,-0.84492 1.29078,-1.99063 1.29078,-3.18555v-0.7957c0,-2.26953 1.6898,-4.13438 3.85628,-4.35313zM5.99866,1.75c-1.89333,0 -3.42781,1.5668 -3.42781,3.5v0.7957c0,1.42734 -0.55434,2.79727 -1.54519,3.80625l-0.07231,0.07383c-0.06159,0.06289 -0.09641,0.14766 -0.09641,0.23789c0,0.18594 0.14729,0.33633 0.32939,0.33633h9.62464c0.1821,0 0.32939,-0.15039 0.32939,-0.33633c0,-0.09023 -0.03481,-0.175 -0.09641,-0.23789l-0.07498,-0.07656c-0.98817,-1.00898 -1.54519,-2.37891 -1.54519,-3.80625v-0.79297c0,-1.9332 -1.53448,-3.5 -3.42781,-3.5zM5.18991,12.54258c0.11783,0.33906 0.43651,0.58242 0.80875,0.58242c0.37224,0 0.69092,-0.24336 0.80875,-0.58242c0.07766,-0.22695 0.32403,-0.34727 0.54631,-0.26797c0.22227,0.0793 0.3401,0.33086 0.26244,0.55781c-0.23566,0.68086 -0.87034,1.16758 -1.6175,1.16758c-0.74715,0 -1.38183,-0.48672 -1.6175,-1.16758c-0.07766,-0.22695 0.03749,-0.47852 0.26244,-0.55781c0.22495,-0.0793 0.46865,0.03828 0.54631,0.26797z" vector-effect="non-scaling-stroke"/></defs></g></svg>