<?xml version="1.0" encoding="UTF-8"?>
<svg xmlns="http://www.w3.org/2000/svg" width="400" height="400" viewBox="0 0 400 400">
    <path d="M329.835,215.023c-10.224,0-18.542,8.318-18.542,18.543v93.404c0,15.527-12.633,28.16-28.16,28.16H72.974c-15.527,0-28.16-12.633-28.16-28.16V116.811c0-15.527,12.632-28.16,28.16-28.16h93.404c10.224,0,18.542-8.318,18.542-18.542s-8.318-18.542-18.542-18.542h-93.404c-35.976,0-65.245,29.269-65.245,65.244v210.16c0,35.976,29.269,65.244,65.245,65.244h210.16c35.977,0,65.245-29.269,65.245-65.244v-93.404c0-10.225-8.318-18.543-18.543-18.543Z"
          stroke-width="0"/>
    <path d="M376.592,32.285l-8.846-8.918c-20.037-20.038-52.681-20.793-73.626-2.011h-.187l-162.768,162.842c-7.098,7.097-12.048,16.039-14.314,25.86l-15.263,66.167c-1.393,6.267.471,12.703,4.985,17.219,3.505,3.505,8.166,5.435,13.123,5.435,1.374,0,2.757-.152,4.149-.462l66.113-15.251c9.819-2.266,18.762-7.216,25.861-14.314l160.756-160.83c10.121-10.121,15.694-23.572,15.694-37.876s-5.567-27.746-15.679-37.86ZM169.091,198.679l108.205-108.205,32.175,32.175-119.927,119.927c-2.147,2.147-4.978,3.729-7.922,4.439l-37.18,8.558,8.57-37.288c.658-2.936,2.211-5.715,4.373-7.826l12.061-11.779h-.354ZM350.301,81.818l-14.628,14.627-32.175-32.175,14.627-14.628c6.437-6.437,16.91-6.437,23.347,0l8.83,8.83c6.436,6.437,6.436,16.909,0,23.346Z"
          stroke-width="0"/>
</svg>
