<svg version="1.2" xmlns="http://www.w3.org/2000/svg" xmlns:xlink="http://www.w3.org/1999/xlink" overflow="visible" preserveAspectRatio="none" viewBox="0 0 20 20" width="20" height="20"><g transform="translate(0, 0)"><defs><path id="path-17118048575648" d="M17.94 0 C17.94 0 10 7.92 10 7.92 C10 7.92 2.06 0 2.06 0 C2.06 0 0 2.06 0 2.06 C0 2.06 7.92 10 7.92 10 C7.92 10 0 17.94 0 17.94 C0 17.94 2.06 20 2.06 20 C2.06 20 10 12.08 10 12.08 C10 12.08 17.94 20 17.94 20 C17.94 20 20 17.94 20 17.94 C20 17.94 12.08 10 12.08 10 C12.08 10 20 2.06 20 2.06 C20 2.06 17.94 0 17.94 0 Z" vector-effect="non-scaling-stroke"/></defs><g transform="translate(0, 0)"><path style="stroke-width: 0px; stroke-linecap: butt; stroke-linejoin: miter; fill: rgb(255, 255, 255);" d="M17.94 0 C17.94 0 10 7.92 10 7.92 C10 7.92 2.06 0 2.06 0 C2.06 0 0 2.06 0 2.06 C0 2.06 7.92 10 7.92 10 C7.92 10 0 17.94 0 17.94 C0 17.94 2.06 20 2.06 20 C2.06 20 10 12.08 10 12.08 C10 12.08 17.94 20 17.94 20 C17.94 20 20 17.94 20 17.94 C20 17.94 12.08 10 12.08 10 C12.08 10 20 2.06 20 2.06 C20 2.06 17.94 0 17.94 0 Z" vector-effect="non-scaling-stroke"/></g></g></svg>