<svg version="1.2" xmlns="http://www.w3.org/2000/svg" overflow="visible"
     preserveAspectRatio="none" viewBox="0 0 102 102" xml:space="preserve" y="0px" x="0px"
     width="14" height="14"><g transform="translate(1, 1)"><style type="text/css">
</style><path
        d="M96.3,11L89,3.7C86.6,1.2,83.4,0,80.2,0c-3.2,0-6.4,1.2-8.8,3.7L56.8,18.2L50,25L3.7,71.3  c-0.8,0.8-1.2,1.8-1.3,2.8L0,94.8c-0.3,2.8,1.9,5.2,4.6,5.2c0.2,0,0.4,0,0.5,0l20.6-2.3c1.1-0.1,2.1-0.6,2.8-1.3L75,50l6.8-6.8  l14.6-14.6C101.2,23.8,101.2,15.9,96.3,11z M68.4,43.4L23.2,88.6L10,90l1.5-13.2l45.2-45.2l9.5-9.5l11.7,11.7L68.4,43.4z M90.5,21.2  L84.7,27c-0.1,0.1-0.3,0.1-0.4,0L72.9,15.7c-0.1-0.1-0.1-0.3,0-0.4l5.8-5.8c0.8-0.8,2-0.8,2.8,0l9,9C91.3,19.2,91.3,20.4,90.5,21.2z"
        vector-effect="non-scaling-stroke"/></g></svg>
