<svg version="1.2" xmlns="http://www.w3.org/2000/svg" overflow="visible" preserveAspectRatio="none" viewBox="0 0 16 16"
     width="16" height="16">
    <g transform="translate(0, 0)">
        <g transform="translate(0, 0) rotate(0)">
            <path d="M8,0c-4.41828,0 -8,3.58172 -8,8c0,4.41828 3.58172,8 8,8c4.41828,0 8,-3.58172 8,-8c0,-4.41828 -3.58172,-8 -8,-8zM8,14.4512c-3.5629,0 -6.4512,-2.8883 -6.4512,-6.4512c0,-3.5629 2.8883,-6.4512 6.4512,-6.4512c3.5629,0 6.4512,2.8883 6.4512,6.4512c0.00085,1.71122 -0.67856,3.35261 -1.88857,4.56263c-1.21002,1.21002 -2.8514,1.88942 -4.56263,1.88857zM9.3552,11.0912c0.00259,0.5487 -0.32594,1.04482 -0.83214,1.2566c-0.50619,0.21178 -1.09014,0.09742 -1.47905,-0.28966c-0.38891,-0.38708 -0.50604,-0.97047 -0.29666,-1.47766c0.20938,-0.50719 0.70393,-0.83807 1.25264,-0.83808c0.74747,0.00088 1.35344,0.60613 1.3552,1.3536zM6.7296,4.2768l0.2192,4.3872c0.01103,0.20595 0.18096,0.36745 0.3872,0.368h1.328c0.20624,-0.00055 0.37617,-0.16205 0.3872,-0.368l0.2192,-4.3872c0.00526,-0.10598 -0.0332,-0.20947 -0.10639,-0.28629c-0.07319,-0.07682 -0.1747,-0.12024 -0.28081,-0.12011h-1.76c-0.10721,-0.00191 -0.21042,0.04074 -0.28502,0.11776c-0.0746,0.07703 -0.11392,0.18154 -0.10858,0.28864z"
                  style="stroke-width: 0px" vector-effect="non-scaling-stroke"/>
        </g>
        <defs>
            <path id="path-17092219714357319"
                  d="M8,0c-4.41828,0 -8,3.58172 -8,8c0,4.41828 3.58172,8 8,8c4.41828,0 8,-3.58172 8,-8c0,-4.41828 -3.58172,-8 -8,-8zM8,14.4512c-3.5629,0 -6.4512,-2.8883 -6.4512,-6.4512c0,-3.5629 2.8883,-6.4512 6.4512,-6.4512c3.5629,0 6.4512,2.8883 6.4512,6.4512c0.00085,1.71122 -0.67856,3.35261 -1.88857,4.56263c-1.21002,1.21002 -2.8514,1.88942 -4.56263,1.88857zM9.3552,11.0912c0.00259,0.5487 -0.32594,1.04482 -0.83214,1.2566c-0.50619,0.21178 -1.09014,0.09742 -1.47905,-0.28966c-0.38891,-0.38708 -0.50604,-0.97047 -0.29666,-1.47766c0.20938,-0.50719 0.70393,-0.83807 1.25264,-0.83808c0.74747,0.00088 1.35344,0.60613 1.3552,1.3536zM6.7296,4.2768l0.2192,4.3872c0.01103,0.20595 0.18096,0.36745 0.3872,0.368h1.328c0.20624,-0.00055 0.37617,-0.16205 0.3872,-0.368l0.2192,-4.3872c0.00526,-0.10598 -0.0332,-0.20947 -0.10639,-0.28629c-0.07319,-0.07682 -0.1747,-0.12024 -0.28081,-0.12011h-1.76c-0.10721,-0.00191 -0.21042,0.04074 -0.28502,0.11776c-0.0746,0.07703 -0.11392,0.18154 -0.10858,0.28864z"
                  vector-effect="non-scaling-stroke"/>
        </defs>
    </g>
</svg>
