<?xml version="1.0" encoding="utf-8"?>
<!-- Generator: Adobe Illustrator 27.5.0, SVG Export Plug-In . SVG Version: 6.00 Build 0)  -->
<svg version="1.1" id="Ebene_1" xmlns="http://www.w3.org/2000/svg" x="0px" y="0px"
	 viewBox="0 0 200 200" style="enable-background:new 0 0 200 200;" xml:space="preserve">
<style type="text/css">
	.st0{fill:#333333;}
</style>
<path class="st0" d="M175.3,138.9h-69.6c-2.6-13-14.1-22.8-27.9-22.8S52.6,126,50,138.9H26.7c-3.1,0-5.7,2.6-5.7,5.7
	c0,3.1,2.6,5.7,5.7,5.7H50c2.6,13,14.1,22.8,27.9,22.8s25.2-9.8,27.9-22.8h69.6c3.1,0,5.7-2.6,5.7-5.7
	C181,141.5,178.4,138.9,175.3,138.9z M77.8,161.7c-9.4,0-17.1-7.6-17.1-17.1c0-9.4,7.6-17.1,17.1-17.1s17.1,7.6,17.1,17.1
	C94.9,154,87.3,161.7,77.8,161.7z"/>
<path class="st0" d="M175.3,47.5H152c-2.6-13-14.1-22.8-27.9-22.8s-25.2,9.8-27.9,22.8H26.7c-3.1,0-5.7,2.6-5.7,5.7s2.6,5.7,5.7,5.7
	h69.6c2.6,13,14.1,22.8,27.9,22.8s25.2-9.8,27.9-22.8h23.3c3.1,0,5.7-2.6,5.7-5.7S178.4,47.5,175.3,47.5z M124.1,70.3
	c-9.4,0-17.1-7.6-17.1-17.1s7.6-17.1,17.1-17.1s17.1,7.6,17.1,17.1C141.2,62.6,133.5,70.3,124.1,70.3z"/>
</svg>
