<svg version="1.2" xmlns="http://www.w3.org/2000/svg" overflow="visible" preserveAspectRatio="none" viewBox="0 0 15.000000000000014 15" width="15.000000000000014" height="15"><g transform="translate(0, 0)"><g transform="translate(0, 0) rotate(0)"><path d="M11.2511,6.09435c0,-2.848 -2.30876,-5.15675 -5.15675,-5.15675c-2.848,0 -5.15675,2.30876 -5.15675,5.15675c0,2.848 2.30876,5.15675 5.15675,5.15675c2.848,0 5.15675,-2.30876 5.15675,-5.15675zM10.0586,10.7237c-1.06358,0.91415 -2.44946,1.46499 -3.96425,1.46499c-3.36654,0 -6.09435,-2.72781 -6.09435,-6.09435c0,-3.36654 2.72781,-6.09435 6.09435,-6.09435c3.36654,0 6.09435,2.72781 6.09435,6.09435c0,1.5148 -0.55084,2.90067 -1.46499,3.96425l4.14005,4.14298c0.18166,0.18166 0.18166,0.48052 0,0.66217c-0.18166,0.18166 -0.48052,0.18166 -0.66217,0z" style="stroke-width: 0px; stroke-linecap: butt; stroke-linejoin: miter; fill: rgb(51, 51, 51);" vector-effect="non-scaling-stroke"/></g><defs><path id="path-17079943989803592" d="M11.2511,6.09435c0,-2.848 -2.30876,-5.15675 -5.15675,-5.15675c-2.848,0 -5.15675,2.30876 -5.15675,5.15675c0,2.848 2.30876,5.15675 5.15675,5.15675c2.848,0 5.15675,-2.30876 5.15675,-5.15675zM10.0586,10.7237c-1.06358,0.91415 -2.44946,1.46499 -3.96425,1.46499c-3.36654,0 -6.09435,-2.72781 -6.09435,-6.09435c0,-3.36654 2.72781,-6.09435 6.09435,-6.09435c3.36654,0 6.09435,2.72781 6.09435,6.09435c0,1.5148 -0.55084,2.90067 -1.46499,3.96425l4.14005,4.14298c0.18166,0.18166 0.18166,0.48052 0,0.66217c-0.18166,0.18166 -0.48052,0.18166 -0.66217,0z" vector-effect="non-scaling-stroke"/></defs></g></svg>