<?xml version="1.0" encoding="utf-8"?>
<!-- Generator: Adobe Illustrator 22.1.0, SVG Export Plug-In . SVG Version: 6.00 Build 0)  -->
<svg version="1.1" id="Ebene_1" xmlns="http://www.w3.org/2000/svg" xmlns:xlink="http://www.w3.org/1999/xlink" x="0px" y="0px"
	 width="100px" height="100px" viewBox="0 0 100 100" style="enable-background:new 0 0 100 100;" xml:space="preserve">
<g>
	<path d="M50,0C22.386,0,0,22.386,0,50s22.386,50,50,50s50-22.386,50-50S77.614,0,50,0z M50,92.857
		C26.368,92.857,7.143,73.631,7.143,50C7.143,26.368,26.368,7.143,50,7.143S92.857,26.368,92.857,50
		C92.857,73.631,73.632,92.857,50,92.857z"/>
	<path d="M46.261,34.933c-2.103,1.88-4.558,3.477-7.366,4.799v4.855c1.562-0.575,3.324-1.44,5.287-2.595
		c1.962-1.154,3.547-2.305,4.757-3.46v32.003h5.022V29.464h-3.237C49.85,31.233,48.363,33.053,46.261,34.933z"/>
</g>
</svg>
