<?xml version="1.0" encoding="utf-8"?>
<!-- Generator: Adobe Illustrator 22.1.0, SVG Export Plug-In . SVG Version: 6.00 Build 0)  -->
<svg version="1.1" id="Ebene_1" xmlns="http://www.w3.org/2000/svg" xmlns:xlink="http://www.w3.org/1999/xlink" x="0px" y="0px"
	 width="100px" height="100px" viewBox="0 0 100 100" style="enable-background:new 0 0 100 100;" xml:space="preserve">
<g>
	<path d="M50,0C22.386,0,0,22.386,0,50s22.386,50,50,50s50-22.386,50-50S77.614,0,50,0z M50,92.857
		C26.368,92.857,7.143,73.631,7.143,50C7.143,26.368,26.368,7.143,50,7.143S92.857,26.368,92.857,50
		C92.857,73.631,73.632,92.857,50,92.857z"/>
	<path d="M55.748,48.019c1.859-0.854,3.265-2.009,4.213-3.46c0.949-1.451,1.423-3.059,1.423-4.827
		c0-1.859-0.499-3.617-1.493-5.273c-0.996-1.657-2.433-2.961-4.311-3.92c-1.88-0.959-3.934-1.437-6.166-1.437
		c-3.237,0-5.943,0.924-8.119,2.776c-2.176,1.852-3.571,4.461-4.185,7.826l5.022,0.893c0.371-2.455,1.208-4.297,2.511-5.525
		c1.301-1.228,2.93-1.842,4.883-1.842c1.971,0,3.58,0.603,4.827,1.814c1.245,1.21,1.869,2.734,1.869,4.576
		c0,2.326-0.856,4.046-2.567,5.162c-1.712,1.116-3.638,1.674-5.776,1.674c-0.206,0-0.474-0.017-0.809-0.056l-0.558,4.408
		c1.413-0.373,2.595-0.558,3.544-0.558c2.325,0,4.241,0.75,5.748,2.246s2.26,3.401,2.26,5.706c0,2.417-0.814,4.447-2.441,6.083
		c-1.629,1.636-3.624,2.455-5.985,2.455c-1.991,0-3.68-0.628-5.064-1.883c-1.386-1.256-2.368-3.306-2.944-6.152l-5.022,0.67
		c0.335,3.404,1.688,6.177,4.06,8.315s5.352,3.209,8.943,3.209c3.979,0,7.272-1.242,9.877-3.725
		c2.604-2.483,3.906-5.511,3.906-9.082c0-2.64-0.67-4.841-2.009-6.599S58.165,48.577,55.748,48.019z"/>
</g>
</svg>
