<?xml version="1.0" encoding="utf-8"?>
<!-- Generator: Adobe Illustrator 22.1.0, SVG Export Plug-In . SVG Version: 6.00 Build 0)  -->
<svg version="1.1" id="Ebene_1" xmlns="http://www.w3.org/2000/svg" xmlns:xlink="http://www.w3.org/1999/xlink" x="0px" y="0px"
	 width="100px" height="100px" viewBox="0 0 100 100" style="enable-background:new 0 0 100 100;" xml:space="preserve">
<g>
	<path d="M50,0C22.386,0,0,22.386,0,50s22.386,50,50,50s50-22.386,50-50S77.614,0,50,0z M50,92.857
		C26.368,92.857,7.143,73.631,7.143,50C7.143,26.368,26.368,7.143,50,7.143S92.857,26.368,92.857,50
		C92.857,73.631,73.632,92.857,50,92.857z"/>
	<path d="M45.58,62.988c0.854-0.903,2.79-2.619,5.804-5.148c3.608-3.052,6.189-5.451,7.743-7.199
		c1.552-1.747,2.665-3.414,3.334-4.994c0.67-1.58,1.004-3.191,1.004-4.827c0-3.219-1.144-5.915-3.432-8.091
		c-2.288-2.176-5.396-3.265-9.319-3.265c-3.889,0-6.986,1.008-9.291,3.027c-2.307,2.019-3.638,4.953-3.99,8.803l5.162,0.53
		c0.017-2.567,0.753-4.576,2.204-6.027s3.385-2.176,5.804-2.176c2.288,0,4.143,0.684,5.566,2.051s2.134,3.045,2.134,5.036
		c0,1.897-0.781,3.91-2.344,6.041s-4.567,5.019-9.012,8.664c-2.865,2.344-5.055,4.408-6.571,6.194
		c-1.517,1.786-2.619,3.599-3.306,5.441c-0.429,1.116-0.624,2.278-0.586,3.488h27.037v-4.827H43.459
		C44.017,64.798,44.724,63.892,45.58,62.988z"/>
</g>
</svg>
