<svg height="16" overflow="visible" viewBox="0 0 15.999999999999915 16" width="15.999999999999915" xmlns="http://www.w3.org/2000/svg"><g><defs><path id="path-17096318820142026285" d="M15.833494796712495 8.188031284171313 C16.0555017344293 7.9656774070965675 16.0555017344293 7.605103552380768 15.833494796712495 7.384752863387779 C15.833494796712495 7.384752863387779 12.805400168755353 4.349922919529789 12.805400168755353 4.349922919529789 C12.58339323103855 4.127569042455044 12.223381980686971 4.127569042455044 12.003375105472122 4.349922919529789 C11.78336823025727 4.572276796604533 11.781368167755316 4.932850651320333 12.003375105472122 5.153201340313322 C12.003375105472122 5.153201340313322 14.061439419981962 7.214481876438652 14.061439419981962 7.214481876438652 C14.061439419981962 7.214481876438652 8.239257476796203 7.2164850645204055 8.239257476796203 7.2164850645204055 C7.924247632738573 7.2164850645204055 7.6712397262414935 7.469888356862344 7.6712397262414935 7.785390479738668 C7.6712397262414935 8.100892602614994 7.924247632738573 8.354295894956932 8.239257476796203 8.354295894956932 C8.239257476796203 8.354295894956932 14.061439419981962 8.354295894956932 14.061439419981962 8.354295894956932 C14.061439419981962 8.354295894956932 12.003375105472122 10.415576431082261 12.003375105472122 10.415576431082261 C11.781368167755316 10.637930308157005 11.781368167755316 10.998504162872807 12.003375105472122 11.218854851865794 C12.225382043188926 11.439205540858783 12.585393293540502 11.44120872894054 12.805400168755353 11.218854851865794 C12.805400168755353 11.218854851865794 15.833494796712495 8.188031284171313 15.833494796712495 8.188031284171313 Z" vector-effect="non-scaling-stroke"/></defs> <path style="stroke-width: 0; stroke-linecap: butt; stroke-linejoin: miter; fill: rgb(51, 51, 51);" d="M15.833494796712312 8.15143565079552 C16.055501734429114 7.929081773720782 16.055501734429114 7.568507919005015 15.833494796712312 7.348157230012021 C15.833494796712312 7.348157230012021 12.80540016875517 4.313327286154049 12.80540016875517 4.313327286154049 C12.583393231038364 4.090973409079311 12.223381980686788 4.090973409079311 12.003375105471939 4.313327286154049 C11.78336823025709 4.535681163228787 11.781368167755133 4.896255017944554 12.003375105471939 5.116605706937548 C12.003375105471939 5.116605706937548 14.061439419981781 7.177886243062858 14.061439419981781 7.177886243062858 C14.061439419981781 7.177886243062858 8.23925747679602 7.179889431144602 8.23925747679602 7.179889431144602 C7.924247632738389 7.179889431144602 7.671239726241311 7.433292723486602 7.671239726241311 7.748794846362898 C7.671239726241311 8.064296969239194 7.924247632738389 8.317700261581194 8.23925747679602 8.317700261581194 C8.23925747679602 8.317700261581194 14.061439419981781 8.317700261581194 14.061439419981781 8.317700261581194 C14.061439419981781 8.317700261581194 12.003375105471939 10.378980797706504 12.003375105471939 10.378980797706504 C11.781368167755133 10.601334674781242 11.781368167755133 10.96190852949701 12.003375105471939 11.182259218490003 C12.225382043188745 11.402609907482997 12.58539329354032 11.404613095564741 12.80540016875517 11.182259218490003 C12.80540016875517 11.182259218490003 15.833494796712312 8.15143565079552 15.833494796712312 8.15143565079552 Z" vector-effect="non-scaling-stroke"/></g><g><defs><path id="path-17096318820142026283" d="M0.5270164692646518 0.5729117913817728 C0.22800712522265779 0.599954830485458 0 0.8483501526230098 0 1.1488283648861772 C0 1.1488283648861772 0 14.38188883295608 0 14.38188883295608 C0 14.66333675844258 0.20000625019531382 14.902717734212235 0.47701490671582336 14.951795842215219 C0.47701490671582336 14.951795842215219 6.508203381355511 16.02750784211736 6.508203381355511 16.02750784211736 C6.676208631519575 16.057555663343678 6.849214037938521 16.012483931504203 6.980218131816452 15.901306992966832 C7.112222256945358 15.791131648470339 7.187224600768602 15.628873413848225 7.187224600768602 15.4586024268991 C7.187224600768602 15.4586024268991 7.187224600768602 0.6149787410986164 7.187224600768602 0.6149787410986164 C7.187224600768602 0.45171891243562867 7.120222506953171 0.2994766182222904 7.0002187568359835 0.18829967968491837 C6.880215006718794 0.07812433518842359 6.72121003781352 0.024038256981053403 6.559204975155317 0.0390621675942118 C6.559204975155317 0.0390621675942118 0.5270164692646518 0.5729117913817728 0.5270164692646518 0.5729117913817728 C0.5270164692646518 0.5729117913817728 0.5270164692646518 0.5729117913817728 0.5270164692646518 0.5729117913817728 Z" vector-effect="non-scaling-stroke"/></defs> <path style="stroke-width: 0; stroke-linecap: butt; stroke-linejoin: miter; fill: rgb(51, 51, 51);" d="M0.5270164692646517 0.5363161580060023 C0.22800712522265698 0.5633591971096621 0 0.811754519247188 0 1.112232731510403 C0 1.112232731510403 0 14.345293199580283 0 14.345293199580283 C0 14.626741125066815 0.20000625019531526 14.866122100836492 0.4770149067158229 14.915200208839451 C0.4770149067158229 14.915200208839451 6.508203381355511 15.99091220874152 6.508203381355511 15.99091220874152 C6.676208631519575 16.02096002996791 6.84921403793852 15.975888298128439 6.98021813181645 15.86471135959107 C7.112222256945358 15.754536015094573 7.187224600768602 15.592277780472386 7.187224600768602 15.422006793523337 C7.187224600768602 15.422006793523337 7.187224600768602 0.578383107722857 7.187224600768602 0.578383107722857 C7.187224600768602 0.41512327905979873 7.120222506953169 0.26288098484656075 7.000218756835984 0.15170404630919165 C6.880215006718792 0.041528701812694635 6.72121003781352 -0.01255737639473864 6.559204975155318 0.002466534218456218 C6.559204975155318 0.002466534218456218 0.5270164692646517 0.5363161580060023 0.5270164692646517 0.5363161580060023 C0.5270164692646517 0.5363161580060023 0.5270164692646517 0.5363161580060023 0.5270164692646517 0.5363161580060023 Z" vector-effect="non-scaling-stroke"/></g><g><defs><path id="path-17096318820132026281" d="M10.311322228819545 9.627321920911934 C9.996312384761922 9.627321920911934 9.743304478264847 9.880725213253873 9.743304478264847 10.196227336130198 C9.743304478264847 10.196227336130198 9.743304478264847 11.3310333844441 9.743304478264847 11.3310333844441 C9.743304478264847 11.3310333844441 9.741304415762892 11.3310333844441 9.741304415762892 11.3310333844441 C9.741304415762892 11.3310333844441 9.741304415762892 12.086235291265531 9.741304415762892 12.086235291265531 C9.741304415762892 12.086235291265531 9.741304415762892 12.841437198086963 9.741304415762892 12.841437198086963 C9.741304415762892 12.841437198086963 9.742304447013868 12.841437198086963 9.742304447013868 12.841437198086963 C9.742304447013868 12.841437198086963 9.742304447013868 14.434973317122635 9.742304447013868 14.434973317122635 C9.742304447013868 14.434973317122635 8.320260008125166 14.434973317122635 8.320260008125166 14.434973317122635 C8.005250164067544 14.434973317122635 7.752242257570469 14.688376609464571 7.752242257570469 15.0038787323409 C7.752242257570469 15.31938085521723 8.005250164067544 15.572784147559167 8.320260008125166 15.572784147559167 C8.320260008125166 15.572784147559167 10.310322197568567 15.572784147559167 10.310322197568567 15.572784147559167 C10.62533204162619 15.572784147559167 10.878339948123266 15.31938085521723 10.878339948123266 15.0038787323409 C10.878339948123266 15.0038787323409 10.878339948123266 10.196227336130196 10.878339948123266 10.196227336130196 C10.878339948123266 9.880725213253868 10.62533204162619 9.627321920911928 10.310322197568567 9.627321920911928 C10.310322197568567 9.627321920911928 10.311322228819545 9.627321920911934 10.311322228819545 9.627321920911934 Z" vector-effect="non-scaling-stroke"/></defs> <path style="stroke-width: 0; stroke-linecap: butt; stroke-linejoin: miter; fill: rgb(51, 51, 51);" d="M10.311322228819591 9.5907262875362 C9.996312384761968 9.5907262875362 9.743304478264893 9.844129579878086 9.743304478264893 10.159631702754382 C9.743304478264893 10.159631702754382 9.743304478264893 11.294437751068358 9.743304478264893 11.294437751068358 C9.743304478264893 11.294437751068358 9.74130441576294 11.294437751068358 9.74130441576294 11.294437751068358 C9.74130441576294 11.294437751068358 9.74130441576294 12.04963965788977 9.74130441576294 12.04963965788977 C9.74130441576294 12.04963965788977 9.74130441576294 12.804841564711182 9.74130441576294 12.804841564711182 C9.74130441576294 12.804841564711182 9.742304447013915 12.804841564711182 9.742304447013915 12.804841564711182 C9.742304447013915 12.804841564711182 9.742304447013915 14.398377683746844 9.742304447013915 14.398377683746844 C9.742304447013915 14.398377683746844 8.32026000812521 14.398377683746844 8.32026000812521 14.398377683746844 C8.00525016406759 14.398377683746844 7.752242257570515 14.651780976088844 7.752242257570515 14.96728309896514 C7.752242257570515 15.282785221841436 8.00525016406759 15.536188514183436 8.32026000812521 15.536188514183436 C8.32026000812521 15.536188514183436 10.310322197568613 15.536188514183436 10.310322197568613 15.536188514183436 C10.625332041626237 15.536188514183436 10.878339948123312 15.282785221841436 10.878339948123312 14.96728309896514 C10.878339948123312 14.96728309896514 10.878339948123312 10.159631702754382 10.878339948123312 10.159631702754382 C10.878339948123312 9.844129579878086 10.625332041626237 9.5907262875362 10.310322197568613 9.5907262875362 C10.310322197568613 9.5907262875362 10.311322228819591 9.5907262875362 10.311322228819591 9.5907262875362 Z" vector-effect="non-scaling-stroke"/></g><g><defs><path id="path-17096318820132026279" d="M10.327322728835176 0.17728214523526953 C10.327322728835176 0.17728214523526953 8.337260539391774 0.17728214523526953 8.337260539391774 0.17728214523526953 C8.02225069533415 0.17728214523526953 7.769242788837076 0.43068543757720845 7.769242788837076 0.7461875604535355 C7.769242788837076 1.0616896833298628 8.02225069533415 1.3150929756718015 8.337260539391774 1.3150929756718015 C8.337260539391774 1.3150929756718015 9.759304978280475 1.3150929756718015 9.759304978280475 1.3150929756718015 C9.759304978280475 1.3150929756718015 9.759304978280475 2.9086290947074733 9.759304978280475 2.9086290947074733 C9.759304978280475 2.9086290947074733 9.757304915778523 2.9086290947074733 9.757304915778523 2.9086290947074733 C9.757304915778523 2.9086290947074733 9.757304915778523 3.6638310015289037 9.757304915778523 3.6638310015289037 C9.757304915778523 3.6638310015289037 9.757304915778523 4.419032908350334 9.757304915778523 4.419032908350334 C9.757304915778523 4.419032908350334 9.7583049470295 4.419032908350334 9.7583049470295 4.419032908350334 C9.7583049470295 4.419032908350334 9.7583049470295 5.553838956664235 9.7583049470295 5.553838956664235 C9.7583049470295 5.869341079540562 10.01231288477755 6.122744371882501 10.327322728835174 6.122744371882501 C10.642332572892798 6.122744371882501 10.895340479389873 5.869341079540561 10.895340479389873 5.553838956664235 C10.895340479389873 5.553838956664235 10.895340479389873 0.7451859664126583 10.895340479389873 0.7451859664126583 C10.895340479389873 0.4296838435363312 10.642332572892798 0.17628055119439237 10.327322728835174 0.17628055119439237 C10.327322728835174 0.17628055119439237 10.327322728835176 0.17728214523526953 10.327322728835176 0.17728214523526953 Z" vector-effect="non-scaling-stroke"/></defs> <path style="stroke-width: 0; stroke-linecap: butt; stroke-linejoin: miter; fill: rgb(51, 51, 51);" d="M10.32732272883522 0.1406865118594851 C10.32732272883522 0.1406865118594851 8.337260539391817 0.1406865118594851 8.337260539391817 0.1406865118594851 C8.022250695334193 0.1406865118594851 7.7692427888371185 0.3940898042013714 7.7692427888371185 0.7095919270777813 C7.7692427888371185 1.0250940499540775 8.022250695334193 1.2784973422959638 8.337260539391817 1.2784973422959638 C8.337260539391817 1.2784973422959638 9.759304978280518 1.2784973422959638 9.759304978280518 1.2784973422959638 C9.759304978280518 1.2784973422959638 9.759304978280518 2.872033461331739 9.759304978280518 2.872033461331739 C9.759304978280518 2.872033461331739 9.757304915778565 2.872033461331739 9.757304915778565 2.872033461331739 C9.757304915778565 2.872033461331739 9.757304915778565 3.6272353681531513 9.757304915778565 3.6272353681531513 C9.757304915778565 3.6272353681531513 9.757304915778565 4.3824372749745635 9.757304915778565 4.3824372749745635 C9.757304915778565 4.3824372749745635 9.758304947029544 4.3824372749745635 9.758304947029544 4.3824372749745635 C9.758304947029544 4.3824372749745635 9.758304947029544 5.517243323288426 9.758304947029544 5.517243323288426 C9.758304947029544 5.832745446164836 10.012312884777593 6.086148738506722 10.327322728835217 6.086148738506722 C10.64233257289284 6.086148738506722 10.895340479389915 5.832745446164836 10.895340479389915 5.517243323288426 C10.895340479389915 5.517243323288426 10.895340479389915 0.7085903330369092 10.895340479389915 0.7085903330369092 C10.895340479389915 0.39308821016049933 10.64233257289284 0.13968491781861303 10.327322728835217 0.13968491781861303 C10.327322728835217 0.13968491781861303 10.32732272883522 0.1406865118594851 10.32732272883522 0.1406865118594851 Z" vector-effect="non-scaling-stroke"/></g></svg>