<svg version="1.2" xmlns="http://www.w3.org/2000/svg" viewBox="0 0 15 16" width="15" height="16">
    <path id="Layer" class="s0"
          d="m12.8 4.2c1 0 1.9-0.8 1.9-1.9 0-1-0.9-1.8-1.9-1.8-1.1 0-1.9 0.8-1.9 1.8q0 0.3 0.1 0.6l-6.9 4c-0.7-0.7-1.9-0.7-2.6 0-0.7 0.7-0.7 1.9 0 2.6 0.7 0.7 1.9 0.7 2.6 0 0.1 0 0.1-0.1 0.2-0.2l6.8 4.1q-0.2 0.3-0.1 0.7c0 1 0.8 1.9 1.9 1.9 1 0 1.8-0.9 1.8-1.9 0-1.1-0.8-1.9-1.8-1.9-0.5 0-1 0.2-1.3 0.5l-6.9-4.2q0.1-0.4-0.1-0.8l6.9-4.1c0.3 0.4 0.8 0.6 1.3 0.6z"/>
</svg>
