<svg version="1.2" xmlns="http://www.w3.org/2000/svg" overflow="visible"
     preserveAspectRatio="none" viewBox="0 0 95 120" height="21" width="16">
    <g transform="translate(1, 1)">
        <g>
            <path
                  d="M78.842,37.772H65.084v9H78.842A3.162,3.162,0,0,1,82,49.93v54.684a3.162,3.162,0,0,1-3.158,3.158H14.158A3.162,3.162,0,0,1,11,104.614V49.93a3.162,3.162,0,0,1,3.158-3.158H26.015v-9H14.158A12.172,12.172,0,0,0,2,49.93v54.684a12.172,12.172,0,0,0,12.158,12.158H78.842A12.172,12.172,0,0,0,91,104.614V49.93A12.172,12.172,0,0,0,78.842,37.772Z"
                  vector-effect="non-scaling-stroke" />
            <path
                  d="M24.341,30.6a4.487,4.487,0,0,0,3.045-1.187L41.607,16.338V77.272a4.5,4.5,0,0,0,9,0V15.859l14.164,13.5a4.5,4.5,0,1,0,6.209-6.515L49.605,2.47a4.5,4.5,0,0,0-6.151-.055L21.294,22.787A4.5,4.5,0,0,0,24.341,30.6Z"
                  vector-effect="non-scaling-stroke"/>
        </g>
    </g>
</svg>
