<?xml version="1.0" encoding="utf-8"?>
<!-- Generator: Adobe Illustrator 27.5.0, SVG Export Plug-In . SVG Version: 6.00 Build 0)  -->
<svg version="1.1" id="Ebene_1" xmlns="http://www.w3.org/2000/svg" x="0px" y="0px"
	 viewBox="0 0 200 200" style="enable-background:new 0 0 200 200;" xml:space="preserve">
<style type="text/css">
	.st0{fill:#333333;}
</style>
<g id="Ebene_2_00000015322278215629907640000006970732181713263539_">
</g>
<g id="Ebene_1_00000031909729953714900780000012805681231924881332_">
	<g>
		<path class="st0" d="M179.8,131c-2.2-2.2-5.9-2.2-8.1,0l-24.5,24.5V30.7c0-3.1-2.6-5.7-5.7-5.7c-3.1,0-5.7,2.6-5.7,5.7v124.8
			L111.2,131c-2.2-2.2-5.9-2.2-8.1,0s-2.2,5.9,0,8.1l34.3,34.3c2.2,2.2,5.9,2.2,8.1,0l34.3-34.3C182,136.8,182,133.2,179.8,131z"/>
		<path class="st0" d="M70,148H24.3c-3.1,0-5.7,2.6-5.7,5.7s2.6,5.7,5.7,5.7H70c3.1,0,5.7-2.6,5.7-5.7S73.2,148,70,148z"/>
		<path class="st0" d="M92.9,94.8H24.3c-3.1,0-5.7,2.6-5.7,5.7s2.6,5.7,5.7,5.7h68.6c3.1,0,5.7-2.6,5.7-5.7S96,94.8,92.9,94.8z"/>
		<path class="st0" d="M24.3,52h91.4c3.1,0,5.7-2.6,5.7-5.7s-2.6-5.7-5.7-5.7H24.3c-3.1,0-5.7,2.6-5.7,5.7S21.2,52,24.3,52z"/>
	</g>
</g>
</svg>
