<svg version="1.2" xmlns="http://www.w3.org/2000/svg" overflow="visible"
     preserveAspectRatio="none" viewBox="0 0 102 102" width="20" height="20">
    <g transform="translate(1, 1)">
        <path d="M50,0a50,50,0,1,0,50,50A50,50,0,0,0,50,0Zm0,9.68A40.32,40.32,0,1,1,9.68,50,40.3,40.3,0,0,1,50,9.68M78.27,35.94l-4.55-4.58a2.42,2.42,0,0,0-3.42,0L41.8,59.62l-12-12.16a2.43,2.43,0,0,0-3.42,0L21.75,52a2.42,2.42,0,0,0,0,3.42L40,73.87a2.43,2.43,0,0,0,3.42,0L78.25,39.36a2.42,2.42,0,0,0,0-3.42Z"
              class="cls-1_1710319315830" vector-effect="non-scaling-stroke"/>
    </g>
</svg>
