<svg version="1.2" xmlns="http://www.w3.org/2000/svg" overflow="visible"
     preserveAspectRatio="none" viewBox="0 0 15.99997703210027 21.000010000000007" width="15.99997703210027"
     height="21.000010000000007">
    <g transform="translate(0, 0)">
        <g transform="translate(0.000013516050133239449, -0.000010000000000398579) rotate(0)">
            <path style="stroke-linecap: butt; stroke-linejoin: miter;"
                  d="M5.60922,2.12051l-0.45023,5.7791c-0.04586,0.59883 -0.36685,1.14023 -0.87127,1.47656c-0.99633,0.66445 -1.74254,1.67344 -2.04686,2.8834l-0.05419,0.20918h4.81491v-3.60937c0,-0.54551 0.44606,-0.98437 1.0005,-0.98437c0.55444,0 1.0005,0.43887 1.0005,0.98438v3.60938h4.81491l-0.05419,-0.20918c-0.30849,-1.20996 -1.05053,-2.21895 -2.04686,-2.8793c-0.50442,-0.33633 -0.82541,-0.88184 -0.87127,-1.47656l-0.45023,-5.7832c-0.00417,-0.04922 -0.00417,-0.10254 -0.00417,-0.15176h-4.77322c0,0.04922 0,0.10254 -0.00417,0.15176zM7.00158,14.4375h-5.66951c-0.41271,0 -0.8004,-0.18457 -1.05053,-0.50449c-0.25013,-0.31992 -0.34184,-0.73418 -0.24179,-1.12793l0.25846,-1.02539c0.42938,-1.69395 1.47574,-3.10488 2.86393,-4.03184l0.30015,-3.81035l0.15424,-1.96875h-1.28398c-0.18343,0 -0.35851,-0.04922 -0.50859,-0.13535c-0.29181,-0.17227 -0.49191,-0.48809 -0.49191,-0.84902c0,-0.54551 0.44606,-0.98437 1.0005,-0.98437h1.28398h8.77106h1.28398c0.55444,0 1.0005,0.43887 1.0005,0.98438c0,0.36094 -0.2001,0.67676 -0.49191,0.84902c-0.15008,0.08613 -0.32099,0.13535 -0.50859,0.13535h-1.28398l0.15424,1.96875l0.29598,3.81035c1.3882,0.92695 2.43455,2.34199 2.86393,4.03184l0.25846,1.02539c0.10005,0.39375 0.00834,0.80801 -0.24179,1.12793c-0.25013,0.31992 -0.64199,0.50449 -1.05053,0.50449h-5.66534v5.57813c0,0.54551 -0.44606,0.98438 -1.0005,0.98438c-0.55444,0 -1.0005,-0.43887 -1.0005,-0.98437z"
                  vector-effect="non-scaling-stroke"/>
        </g>
        <defs>
            <path id="path-1709631387651758867"
                  d="M5.60922,2.12051l-0.45023,5.7791c-0.04586,0.59883 -0.36685,1.14023 -0.87127,1.47656c-0.99633,0.66445 -1.74254,1.67344 -2.04686,2.8834l-0.05419,0.20918h4.81491v-3.60937c0,-0.54551 0.44606,-0.98437 1.0005,-0.98437c0.55444,0 1.0005,0.43887 1.0005,0.98438v3.60938h4.81491l-0.05419,-0.20918c-0.30849,-1.20996 -1.05053,-2.21895 -2.04686,-2.8793c-0.50442,-0.33633 -0.82541,-0.88184 -0.87127,-1.47656l-0.45023,-5.7832c-0.00417,-0.04922 -0.00417,-0.10254 -0.00417,-0.15176h-4.77322c0,0.04922 0,0.10254 -0.00417,0.15176zM7.00158,14.4375h-5.66951c-0.41271,0 -0.8004,-0.18457 -1.05053,-0.50449c-0.25013,-0.31992 -0.34184,-0.73418 -0.24179,-1.12793l0.25846,-1.02539c0.42938,-1.69395 1.47574,-3.10488 2.86393,-4.03184l0.30015,-3.81035l0.15424,-1.96875h-1.28398c-0.18343,0 -0.35851,-0.04922 -0.50859,-0.13535c-0.29181,-0.17227 -0.49191,-0.48809 -0.49191,-0.84902c0,-0.54551 0.44606,-0.98437 1.0005,-0.98437h1.28398h8.77106h1.28398c0.55444,0 1.0005,0.43887 1.0005,0.98438c0,0.36094 -0.2001,0.67676 -0.49191,0.84902c-0.15008,0.08613 -0.32099,0.13535 -0.50859,0.13535h-1.28398l0.15424,1.96875l0.29598,3.81035c1.3882,0.92695 2.43455,2.34199 2.86393,4.03184l0.25846,1.02539c0.10005,0.39375 0.00834,0.80801 -0.24179,1.12793c-0.25013,0.31992 -0.64199,0.50449 -1.05053,0.50449h-5.66534v5.57813c0,0.54551 -0.44606,0.98438 -1.0005,0.98438c-0.55444,0 -1.0005,-0.43887 -1.0005,-0.98437z"
                  vector-effect="non-scaling-stroke"/>
        </defs>
    </g>
</svg>
