<svg version="1.2" xmlns="http://www.w3.org/2000/svg" xmlns:xlink="http://www.w3.org/1999/xlink" overflow="visible" preserveAspectRatio="none" viewBox="0 0 28 28" xml:space="preserve" y="0px" x="0px" id="a_1710522923430" width="20" height="20"><g transform="translate(1, 1)"><style type="text/css">
	.st0_1710522923430{fill:#666666;}
</style><g>
	<path d="M13,0C5.8,0,0,5.8,0,13s5.8,13,13,13s13-5.8,13-13S20.2,0,13,0z M20.9,21.2c-0.7-2.8-3.2-4.9-6.3-4.9h-3.2   c-3,0-5.6,2.1-6.3,4.9C3,19,1.6,16.2,1.6,13C1.6,6.7,6.7,1.6,13,1.6S24.4,6.7,24.4,13C24.4,16.2,23,19,20.9,21.2z" class="st0_1710522923430" vector-effect="non-scaling-stroke"/>
	<circle r="4.1" cy="10.6" cx="13" class="st0_1710522923430" vector-effect="non-scaling-stroke"/>
</g></g></svg>